<svg width="211" height="210" viewBox="0 0 211 210" fill="none" xmlns="http://www.w3.org/2000/svg">
<g clip-path="url(#clip0_40_179)">
<path d="M192.345 77.51H176.51V62.14H177.515V76.51H192.345V77.51Z" fill="#24544E"/>
<path d="M177.515 147.01H176.51V131.64H192.345V132.64H177.515V147.01Z" fill="#24544E"/>
<path d="M33.64 77.51H17.8047V76.51H32.6353V62.14H33.64V77.51Z" fill="#24544E"/>
<path d="M133.274 191.43H132.27V175.67H147.713V176.67H133.274V191.43Z" fill="#24544E"/>
<path d="M77.8705 33.48H62.437V32.48H76.8657V17.72H77.8705V33.48Z" fill="#24544E"/>
<path d="M147.713 33.48H132.27V17.72H133.274V32.48H147.713V33.48Z" fill="#24544E"/>
<path d="M33.64 147.01H32.6353V132.64H17.8047V131.64H33.64V147.01Z" fill="#24544E"/>
<path d="M77.8705 191.43H76.8657V176.67H62.437V175.67H77.8705V191.43Z" fill="#24544E"/>
<path d="M60.6486 104.51C59.8246 103.45 54.4792 97.33 49.807 97.33C44.8534 97.33 42.3716 100.94 42.3716 104.51C42.3716 108.08 44.8534 111.69 49.807 111.69C54.4792 111.69 59.8246 105.57 60.6486 104.51Z" fill="#24544E"/>
<path d="M149.009 104.51C149.833 103.45 155.179 97.33 159.841 97.33C164.784 97.33 167.276 100.94 167.276 104.51C167.276 108.08 164.794 111.69 159.841 111.69C155.169 111.69 149.823 105.57 149.009 104.51Z" fill="#24544E"/>
<path d="M105.21 209.14C104.135 208.32 97.9961 203 97.9961 198.36C97.9961 193.44 101.623 190.96 105.21 190.96C108.797 190.96 112.425 193.43 112.425 198.36C112.425 203.01 106.275 208.33 105.21 209.14Z" fill="#24544E"/>
<path d="M0 104.71C0.823921 103.64 6.16936 97.53 10.8315 97.53C15.7851 97.53 18.2669 101.14 18.2669 104.71C18.2669 108.28 15.7851 111.89 10.8315 111.89C6.16936 111.89 0.813873 105.77 0 104.71Z" fill="#24544E"/>
<path d="M104.939 0C106.004 0.82 112.154 6.14 112.154 10.78C112.154 15.71 108.526 18.18 104.939 18.18C101.352 18.18 97.7251 15.71 97.7251 10.78C97.7251 6.14 103.874 0.81 104.939 0Z" fill="#24544E"/>
<path d="M210.14 104.44C209.316 105.51 203.97 111.62 199.298 111.62C194.355 111.62 191.863 108.01 191.863 104.44C191.863 100.87 194.345 97.26 199.298 97.26C203.97 97.26 209.316 103.38 210.14 104.44Z" fill="#24544E"/>
<path d="M43.7783 33.66C43.6477 33.53 43.5071 33.4 43.3664 33.28C43.2458 33.14 43.1152 33.01 42.9846 32.87C39.8798 29.78 32.2535 30.31 30.9975 30.48C30.8267 31.73 30.3042 39.32 33.399 42.41C33.5296 42.55 33.6702 42.67 33.8009 42.79C33.9214 42.93 34.0521 43.07 34.1827 43.2C37.2875 46.29 44.9137 45.76 46.1697 45.59C46.3305 44.34 46.863 36.74 43.7582 33.66H43.7783Z" fill="#24544E"/>
<path d="M112.244 38.6C112.244 38.41 112.244 38.22 112.224 38.04C112.234 37.86 112.244 37.67 112.244 37.48C112.244 33.11 106.466 28.11 105.462 27.35C104.457 28.12 98.6895 33.12 98.6895 37.48C98.6895 37.67 98.6894 37.85 98.7095 38.04C98.6995 38.22 98.6895 38.41 98.6895 38.6C98.6895 42.97 104.467 47.96 105.462 48.73C106.466 47.96 112.244 42.97 112.244 38.6Z" fill="#24544E"/>
<path d="M176.58 43.57C176.711 43.44 176.841 43.3 176.962 43.16C177.103 43.04 177.243 42.91 177.374 42.78C180.479 39.69 179.946 32.1 179.775 30.85C178.519 30.69 170.883 30.16 167.788 33.25C167.648 33.38 167.527 33.52 167.407 33.66C167.266 33.78 167.125 33.91 166.995 34.04C163.89 37.13 164.422 44.72 164.583 45.97C165.839 46.14 173.475 46.66 176.57 43.57H176.58Z" fill="#24544E"/>
<path d="M166.623 175.74C166.754 175.87 166.894 176 167.035 176.12C167.156 176.26 167.286 176.39 167.417 176.53C170.522 179.62 178.148 179.09 179.404 178.92C179.565 177.67 180.097 170.07 177.003 166.99C176.872 166.85 176.731 166.73 176.591 166.61C176.47 166.47 176.339 166.34 176.209 166.21C173.104 163.12 165.478 163.65 164.222 163.81C164.061 165.06 163.518 172.66 166.623 175.74Z" fill="#24544E"/>
<path d="M98.167 170.81C98.167 171 98.167 171.18 98.1871 171.37C98.177 171.55 98.167 171.74 98.167 171.93C98.167 176.3 103.944 181.29 104.949 182.06C105.954 181.29 111.722 176.29 111.722 171.93C111.722 171.74 111.721 171.55 111.701 171.37C111.711 171.19 111.722 171 111.722 170.81C111.722 166.44 105.954 161.44 104.949 160.68C103.944 161.45 98.167 166.45 98.167 170.81Z" fill="#24544E"/>
<path d="M33.8208 165.83C33.6901 165.96 33.5595 166.1 33.4389 166.24C33.2983 166.36 33.1676 166.49 33.027 166.62C29.9222 169.71 30.4547 177.3 30.6255 178.55C31.8815 178.72 39.5179 179.24 42.6126 176.16C42.7533 176.03 42.8738 175.89 42.9944 175.75C43.1351 175.63 43.2757 175.5 43.4064 175.37C46.5011 172.28 45.9786 164.69 45.8078 163.44C44.5518 163.28 36.9255 162.75 33.8208 165.83Z" fill="#24544E"/>
<path d="M183.755 104.7C183.755 102.66 182.097 101.01 180.047 101.01C177.997 101.01 176.339 102.66 176.339 104.7C176.339 106.74 177.997 108.39 180.047 108.39C182.097 108.39 183.755 106.74 183.755 104.7Z" fill="#24544E"/>
<path d="M160.745 49.42C159.298 47.98 156.947 47.98 155.5 49.42C154.053 50.86 154.053 53.2 155.5 54.64C156.947 56.08 159.298 56.08 160.745 54.64C162.192 53.2 162.192 50.86 160.745 49.42Z" fill="#24544E"/>
<path d="M49.6662 49.42C48.2193 50.86 48.2193 53.2 49.6662 54.64C51.1131 56.08 53.4643 56.08 54.9112 54.64C56.3581 53.2 56.3581 50.86 54.9112 49.42C53.4643 47.98 51.1131 47.98 49.6662 49.42Z" fill="#24544E"/>
<path d="M26.6567 104.7C26.6567 106.74 28.3146 108.39 30.3644 108.39C32.4141 108.39 34.072 106.74 34.072 104.7C34.072 102.66 32.4041 101.01 30.3644 101.01C28.3146 101.01 26.6567 102.66 26.6567 104.7Z" fill="#24544E"/>
<path d="M49.6662 159.98C51.1131 161.42 53.4643 161.42 54.9112 159.98C56.3581 158.54 56.3581 156.2 54.9112 154.76C53.4643 153.32 51.1131 153.32 49.6662 154.76C48.2193 156.2 48.2193 158.54 49.6662 159.98Z" fill="#24544E"/>
<path d="M160.745 159.98C162.192 158.54 162.192 156.2 160.745 154.76C159.298 153.32 156.947 153.32 155.5 154.76C154.053 156.2 154.053 158.54 155.5 159.98C156.947 161.42 159.298 161.42 160.745 159.98Z" fill="#24544E"/>
<path d="M97.4134 130.43C94.7206 130.43 91.9574 129.61 89.6665 127.47L91.0431 126.01C95.2129 129.91 101.804 128.44 104.959 125.88C106.386 124.72 107.582 123.5 108.556 122.18L108.295 122.08C108.295 122.08 108.737 119.67 103.271 114.24C97.0918 108.1 94.5899 105.71 94.5698 105.69L93.8665 105.02L104.979 92.73L105.723 93.35C106.024 93.61 113.229 99.73 113.852 107.53C114.575 116.56 112.294 122.51 106.225 127.43C104.206 129.07 100.87 130.43 97.4134 130.43ZM96.6598 104.92C97.7851 106.01 100.327 108.48 104.698 112.83C107.903 116.02 109.33 118.38 109.923 120C111.661 116.66 112.264 112.7 111.862 107.69C111.41 102.08 106.929 97.24 105.15 95.54L96.6698 104.92H96.6598Z" fill="#24544E"/>
<path d="M108.657 123.53C106.748 123.53 98.73 123.05 93.0831 115.29C85.1051 104.32 92.3295 92.86 92.3998 92.74L94.0879 93.82C93.8166 94.24 87.5367 104.27 94.7008 114.11C100.378 121.9 108.868 121.52 108.939 121.52L109.049 123.52C109.049 123.52 108.868 123.52 108.637 123.52L108.657 123.53Z" fill="#24544E"/>
<path d="M105.07 133.69C99.5136 133.69 94.3188 131.75 90.4404 128.21C86.0595 124.22 83.7485 118.57 83.7485 111.85C83.7485 97.2 104.256 80.84 104.467 80.68L105.08 80.21L105.693 80.68C105.904 80.84 126.402 97.2 126.402 111.85C126.402 118.56 124.091 124.22 119.71 128.21C115.831 131.74 110.636 133.69 105.08 133.69H105.07ZM105.07 82.78C101.714 85.57 85.7581 99.53 85.7581 111.86C85.7581 125.48 95.7758 131.69 105.07 131.69C114.364 131.69 124.382 125.48 124.382 111.86C124.382 99.53 108.416 85.57 105.07 82.78Z" fill="#24544E"/>
</g>
<defs>
<clipPath id="clip0_40_179">
<rect width="210.14" height="209.14" fill="white"/>
</clipPath>
</defs>
</svg>
