<svg width="141" height="141" viewBox="0 0 141 141" fill="none" xmlns="http://www.w3.org/2000/svg">
<g clip-path="url(#clip0_44_884)">
<path d="M56.024 18.1157C56.024 16.7994 54.9709 15.7463 53.6546 15.7463C52.3382 15.7463 51.2852 16.8182 51.2852 18.1157C51.2852 19.4133 52.3382 20.4852 53.6546 20.4852C54.9709 20.4852 56.024 19.4321 56.024 18.1157Z" fill="#C97567"/>
<path d="M73.3809 34.0623C73.3809 32.7459 72.309 31.6929 71.0115 31.6929C69.714 31.6929 68.6421 32.7459 68.6421 34.0623C68.6421 35.3786 69.6952 36.4317 71.0115 36.4317C72.3278 36.4317 73.3809 35.3598 73.3809 34.0623Z" fill="#C97567"/>
<path d="M109.562 70.2427C109.562 68.9264 108.49 67.8733 107.192 67.8733C105.895 67.8733 104.823 68.9452 104.823 70.2427C104.823 71.5402 105.876 72.6121 107.192 72.6121C108.508 72.6121 109.562 71.5402 109.562 70.2427Z" fill="#C97567"/>
<path d="M73.3809 106.423C73.3809 105.107 72.309 104.054 71.0115 104.054C69.714 104.054 68.6421 105.126 68.6421 106.423C68.6421 107.721 69.6952 108.793 71.0115 108.793C72.3278 108.793 73.3809 107.739 73.3809 106.423Z" fill="#C97567"/>
<path d="M37.2193 70.2427C37.2193 68.9264 36.1662 67.8733 34.8499 67.8733C33.5335 67.8733 32.4805 68.9452 32.4805 70.2427C32.4805 71.5402 33.5335 72.6121 34.8499 72.6121C36.1662 72.6121 37.2193 71.5402 37.2193 70.2427Z" fill="#C97567"/>
<path d="M90.7569 18.1157C90.7569 16.7994 89.685 15.7463 88.3875 15.7463C87.0899 15.7463 86.0181 16.8182 86.0181 18.1157C86.0181 19.4133 87.0711 20.4852 88.3875 20.4852C89.7038 20.4852 90.7569 19.4321 90.7569 18.1157Z" fill="#C97567"/>
<path d="M56.024 122.37C56.024 121.053 54.9709 120 53.6546 120C52.3382 120 51.2852 121.053 51.2852 122.37C51.2852 123.686 52.3382 124.739 53.6546 124.739C54.9709 124.739 56.024 123.667 56.024 122.37Z" fill="#C97567"/>
<path d="M90.7569 122.37C90.7569 121.053 89.685 120 88.3875 120C87.0899 120 86.0181 121.053 86.0181 122.37C86.0181 123.686 87.0711 124.739 88.3875 124.739C89.7038 124.739 90.7569 123.667 90.7569 122.37Z" fill="#C97567"/>
<path d="M123.138 55.2366C124.455 55.2366 125.508 54.1647 125.508 52.8672C125.508 51.5697 124.455 50.4978 123.138 50.4978C121.822 50.4978 120.769 51.5697 120.769 52.8672C120.769 54.1647 121.822 55.2366 123.138 55.2366Z" fill="#C97567"/>
<path d="M123.138 89.9878C124.455 89.9878 125.508 88.916 125.508 87.6184C125.508 86.3209 124.455 85.249 123.138 85.249C121.822 85.249 120.769 86.3021 120.769 87.6184C120.769 88.9348 121.822 89.9878 123.138 89.9878Z" fill="#C97567"/>
<path d="M18.8845 55.2366C20.2009 55.2366 21.254 54.1647 21.254 52.8672C21.254 51.5697 20.2009 50.4978 18.8845 50.4978C17.5682 50.4978 16.5151 51.5697 16.5151 52.8672C16.5151 54.1647 17.5682 55.2366 18.8845 55.2366Z" fill="#C97567"/>
<path d="M18.8845 89.9878C20.2009 89.9878 21.254 88.916 21.254 87.6184C21.254 86.3209 20.2009 85.249 18.8845 85.249C17.5682 85.249 16.5151 86.3021 16.5151 87.6184C16.5151 88.9348 17.5682 89.9878 18.8845 89.9878Z" fill="#C97567"/>
<path d="M26.049 70.7504C24.9772 69.2272 17.9065 60.4453 11.4565 60.1821C4.61151 59.9 0.982177 64.7892 0.775323 69.7537C0.587275 74.7182 3.82171 79.8707 10.6667 80.134C17.1167 80.3785 24.8455 72.1795 26.049 70.7504Z" fill="#C97567"/>
<path d="M32.1611 32.2008C32.4807 30.3579 33.7031 19.1502 29.3215 14.4114C24.6767 9.37169 18.6592 10.2743 15.0111 13.6404C11.3629 17.0065 10.009 22.9488 14.6538 27.9697C19.0353 32.7085 30.3182 32.37 32.1611 32.2008Z" fill="#C97567"/>
<path d="M70.4289 25.4495C71.9521 24.3776 80.7339 17.307 80.9972 10.8569C81.2605 4.01196 76.3712 0.382628 71.4255 0.175775C66.461 -0.0310782 61.3085 3.22216 61.0453 10.0671C60.782 16.5172 68.9997 24.246 70.4289 25.4495Z" fill="#C97567"/>
<path d="M108.96 31.5615C110.803 31.8812 122.01 33.1035 126.749 28.722C131.77 24.0772 130.905 18.0596 127.52 14.4115C124.154 10.7633 118.212 9.4094 113.191 14.073C108.452 18.4545 108.791 29.7186 108.96 31.5803V31.5615Z" fill="#C97567"/>
<path d="M115.71 69.8289C116.782 71.3521 123.853 80.134 130.303 80.3972C137.148 80.6605 140.777 75.79 140.984 70.8256C141.172 65.8611 137.938 60.7086 131.093 60.4453C124.643 60.2008 116.914 68.3997 115.71 69.8289Z" fill="#C97567"/>
<path d="M109.599 108.36C109.279 110.203 108.057 121.411 112.438 126.15C117.083 131.189 123.119 130.306 126.749 126.921C130.397 123.555 131.751 117.612 127.087 112.591C122.706 107.853 111.442 108.191 109.58 108.36H109.599Z" fill="#C97567"/>
<path d="M71.331 115.111C69.8078 116.183 61.0259 123.254 60.7627 129.704C60.4994 136.549 65.3698 140.178 70.3343 140.385C75.2988 140.573 80.4513 137.338 80.7146 130.493C80.959 124.043 72.7601 116.315 71.331 115.111Z" fill="#C97567"/>
<path d="M32.8003 109C30.9574 108.68 19.7497 107.458 15.0109 111.839C9.99001 116.484 10.855 122.501 14.2399 126.15C17.6248 129.798 23.5483 131.152 28.5692 126.507C33.308 122.125 32.9695 110.842 32.8003 109Z" fill="#C97567"/>
</g>
<path d="M84.0728 73.4212V78.6033H78.94V87.0427H73.5111V78.6033H56.6816V74.2108L68.4277 52.4953H74.054L62.9495 73.4212H73.5111V65.1791H78.94V73.4212H84.0728Z" fill="#158474"/>
<defs>
<clipPath id="clip0_44_884">
<rect width="140.209" height="140.209" fill="white" transform="translate(0.775391 0.175781)"/>
</clipPath>
</defs>
</svg>
