<svg width="142" height="141" viewBox="0 0 142 141" fill="none" xmlns="http://www.w3.org/2000/svg">
<g clip-path="url(#clip0_44_838)">
<path d="M56.1441 18.6117C56.1441 17.2954 55.091 16.2423 53.7747 16.2423C52.4583 16.2423 51.4053 17.3142 51.4053 18.6117C51.4053 19.9093 52.4583 20.9811 53.7747 20.9811C55.091 20.9811 56.1441 19.9281 56.1441 18.6117Z" fill="#C97567"/>
<path d="M73.501 34.5583C73.501 33.2419 72.4291 32.1888 71.1316 32.1888C69.8341 32.1888 68.7622 33.2419 68.7622 34.5583C68.7622 35.8746 69.8153 36.9277 71.1316 36.9277C72.448 36.9277 73.501 35.8558 73.501 34.5583Z" fill="#C97567"/>
<path d="M109.682 70.7388C109.682 69.4225 108.61 68.3694 107.312 68.3694C106.015 68.3694 104.943 69.4413 104.943 70.7388C104.943 72.0363 105.996 73.1082 107.312 73.1082C108.629 73.1082 109.682 72.0363 109.682 70.7388Z" fill="#C97567"/>
<path d="M73.501 106.919C73.501 105.603 72.4291 104.55 71.1316 104.55C69.8341 104.55 68.7622 105.622 68.7622 106.919C68.7622 108.217 69.8153 109.289 71.1316 109.289C72.448 109.289 73.501 108.236 73.501 106.919Z" fill="#C97567"/>
<path d="M37.3394 70.7388C37.3394 69.4225 36.2863 68.3694 34.97 68.3694C33.6537 68.3694 32.6006 69.4413 32.6006 70.7388C32.6006 72.0363 33.6537 73.1082 34.97 73.1082C36.2863 73.1082 37.3394 72.0363 37.3394 70.7388Z" fill="#C97567"/>
<path d="M90.877 18.6117C90.877 17.2954 89.8051 16.2423 88.5076 16.2423C87.2101 16.2423 86.1382 17.3142 86.1382 18.6117C86.1382 19.9093 87.1913 20.9811 88.5076 20.9811C89.8239 20.9811 90.877 19.9281 90.877 18.6117Z" fill="#C97567"/>
<path d="M56.1441 122.866C56.1441 121.549 55.091 120.496 53.7747 120.496C52.4583 120.496 51.4053 121.549 51.4053 122.866C51.4053 124.182 52.4583 125.235 53.7747 125.235C55.091 125.235 56.1441 124.163 56.1441 122.866Z" fill="#C97567"/>
<path d="M90.877 122.866C90.877 121.549 89.8051 120.496 88.5076 120.496C87.2101 120.496 86.1382 121.549 86.1382 122.866C86.1382 124.182 87.1913 125.235 88.5076 125.235C89.8239 125.235 90.877 124.163 90.877 122.866Z" fill="#C97567"/>
<path d="M123.259 55.7327C124.575 55.7327 125.628 54.6608 125.628 53.3633C125.628 52.0658 124.575 50.9939 123.259 50.9939C121.942 50.9939 120.889 52.0658 120.889 53.3633C120.889 54.6608 121.942 55.7327 123.259 55.7327Z" fill="#C97567"/>
<path d="M123.259 90.4839C124.575 90.4839 125.628 89.4121 125.628 88.1145C125.628 86.817 124.575 85.7451 123.259 85.7451C121.942 85.7451 120.889 86.7982 120.889 88.1145C120.889 89.4309 121.942 90.4839 123.259 90.4839Z" fill="#C97567"/>
<path d="M19.0047 55.7327C20.321 55.7327 21.3741 54.6608 21.3741 53.3633C21.3741 52.0658 20.321 50.9939 19.0047 50.9939C17.6883 50.9939 16.6353 52.0658 16.6353 53.3633C16.6353 54.6608 17.6883 55.7327 19.0047 55.7327Z" fill="#C97567"/>
<path d="M19.0047 90.4839C20.321 90.4839 21.3741 89.4121 21.3741 88.1145C21.3741 86.817 20.321 85.7451 19.0047 85.7451C17.6883 85.7451 16.6353 86.7982 16.6353 88.1145C16.6353 89.4309 17.6883 90.4839 19.0047 90.4839Z" fill="#C97567"/>
<path d="M26.1691 71.2466C25.0973 69.7234 18.0266 60.9415 11.5766 60.6783C4.73163 60.3962 1.10229 65.2855 0.895441 70.2499C0.707392 75.2144 3.94183 80.3669 10.7868 80.6302C17.2368 80.8747 24.9656 72.6758 26.1691 71.2466Z" fill="#C97567"/>
<path d="M32.2812 32.6967C32.6009 30.8539 33.8232 19.6462 29.4417 14.9074C24.7969 9.86766 18.7793 10.7703 15.1312 14.1364C11.483 17.5024 10.1291 23.4448 14.7739 28.4656C19.1554 33.2045 30.4383 32.866 32.2812 32.6967Z" fill="#C97567"/>
<path d="M70.549 25.9457C72.0722 24.8738 80.854 17.8032 81.1173 11.3531C81.3806 4.50818 76.4913 0.878844 71.5456 0.671991C66.5812 0.465138 61.4286 3.71837 61.1654 10.5633C60.9021 17.0134 69.1198 24.7422 70.549 25.9457Z" fill="#C97567"/>
<path d="M109.08 32.0573C110.923 32.377 122.131 33.5993 126.869 29.2178C131.89 24.573 131.025 18.5555 127.64 14.9073C124.274 11.2592 118.332 9.90525 113.311 14.5688C108.572 18.9504 108.911 30.2145 109.08 32.0762V32.0573Z" fill="#C97567"/>
<path d="M115.831 70.325C116.902 71.8482 123.973 80.6301 130.423 80.8933C137.268 81.1566 140.897 76.2861 141.104 71.3217C141.292 66.3572 138.058 61.2047 131.213 60.9414C124.763 60.6969 117.034 68.8958 115.831 70.325Z" fill="#C97567"/>
<path d="M109.719 108.856C109.399 110.699 108.177 121.907 112.558 126.646C117.203 131.685 123.24 130.802 126.869 127.417C130.517 124.051 131.871 118.108 127.207 113.087C122.826 108.349 111.562 108.687 109.7 108.856H109.719Z" fill="#C97567"/>
<path d="M71.4511 115.607C69.9279 116.679 61.146 123.75 60.8828 130.2C60.6195 137.045 65.49 140.674 70.4544 140.881C75.4189 141.069 80.5714 137.835 80.8347 130.99C81.0792 124.539 72.8803 116.811 71.4511 115.607Z" fill="#C97567"/>
<path d="M32.9204 109.495C31.0775 109.176 19.8698 107.953 15.131 112.335C10.1101 116.98 10.9752 122.997 14.36 126.645C17.7449 130.294 23.6684 131.648 28.6893 127.003C33.4281 122.621 33.0896 111.338 32.9204 109.495Z" fill="#C97567"/>
</g>
<path d="M72.2941 67.5013C78.7594 68.0442 83.1025 71.3509 83.1025 76.8291C83.1025 83.2944 77.871 87.7856 69.5303 87.7856C64.9404 87.7856 60.1531 86.305 56.9945 84.0347L59.4128 79.3955C62.1272 81.6164 65.6313 82.8996 69.1354 82.8996C74.3669 82.8996 77.4268 80.5306 77.4268 76.9278C77.4268 73.1769 74.3176 71.2522 69.0367 71.2522H64.0027V67.6493L73.7747 58.1241H58.7218L58.6725 52.9914H81.3751V56.6435L70.3693 67.3532L72.2941 67.5013Z" fill="#158474"/>
<defs>
<clipPath id="clip0_44_838">
<rect width="140.209" height="140.209" fill="white" transform="translate(0.895508 0.671997)"/>
</clipPath>
</defs>
</svg>
