<svg width="141" height="141" viewBox="0 0 141 141" fill="none" xmlns="http://www.w3.org/2000/svg">
<g clip-path="url(#clip0_44_907)">
<path d="M55.9039 18.6117C55.9039 17.2954 54.8508 16.2423 53.5344 16.2423C52.2181 16.2423 51.165 17.3142 51.165 18.6117C51.165 19.9093 52.2181 20.9811 53.5344 20.9811C54.8508 20.9811 55.9039 19.9281 55.9039 18.6117Z" fill="#C97567"/>
<path d="M73.2608 34.5583C73.2608 33.2419 72.1889 32.1888 70.8914 32.1888C69.5938 32.1888 68.522 33.2419 68.522 34.5583C68.522 35.8746 69.575 36.9277 70.8914 36.9277C72.2077 36.9277 73.2608 35.8558 73.2608 34.5583Z" fill="#C97567"/>
<path d="M109.441 70.7388C109.441 69.4225 108.37 68.3694 107.072 68.3694C105.775 68.3694 104.703 69.4413 104.703 70.7388C104.703 72.0363 105.756 73.1082 107.072 73.1082C108.388 73.1082 109.441 72.0363 109.441 70.7388Z" fill="#C97567"/>
<path d="M73.2608 106.919C73.2608 105.603 72.1889 104.55 70.8914 104.55C69.5938 104.55 68.522 105.622 68.522 106.919C68.522 108.217 69.575 109.289 70.8914 109.289C72.2077 109.289 73.2608 108.236 73.2608 106.919Z" fill="#C97567"/>
<path d="M37.0992 70.7388C37.0992 69.4225 36.0461 68.3694 34.7298 68.3694C33.4134 68.3694 32.3604 69.4413 32.3604 70.7388C32.3604 72.0363 33.4134 73.1082 34.7298 73.1082C36.0461 73.1082 37.0992 72.0363 37.0992 70.7388Z" fill="#C97567"/>
<path d="M90.6368 18.6117C90.6368 17.2954 89.5649 16.2423 88.2674 16.2423C86.9698 16.2423 85.8979 17.3142 85.8979 18.6117C85.8979 19.9093 86.951 20.9811 88.2674 20.9811C89.5837 20.9811 90.6368 19.9281 90.6368 18.6117Z" fill="#C97567"/>
<path d="M55.9039 122.866C55.9039 121.549 54.8508 120.496 53.5344 120.496C52.2181 120.496 51.165 121.549 51.165 122.866C51.165 124.182 52.2181 125.235 53.5344 125.235C54.8508 125.235 55.9039 124.163 55.9039 122.866Z" fill="#C97567"/>
<path d="M90.6368 122.866C90.6368 121.549 89.5649 120.496 88.2674 120.496C86.9698 120.496 85.8979 121.549 85.8979 122.866C85.8979 124.182 86.951 125.235 88.2674 125.235C89.5837 125.235 90.6368 124.163 90.6368 122.866Z" fill="#C97567"/>
<path d="M123.018 55.7327C124.335 55.7327 125.388 54.6608 125.388 53.3633C125.388 52.0658 124.335 50.9939 123.018 50.9939C121.702 50.9939 120.649 52.0658 120.649 53.3633C120.649 54.6608 121.702 55.7327 123.018 55.7327Z" fill="#C97567"/>
<path d="M123.018 90.4839C124.335 90.4839 125.388 89.4121 125.388 88.1145C125.388 86.817 124.335 85.7451 123.018 85.7451C121.702 85.7451 120.649 86.7982 120.649 88.1145C120.649 89.4309 121.702 90.4839 123.018 90.4839Z" fill="#C97567"/>
<path d="M18.7644 55.7327C20.0808 55.7327 21.1338 54.6608 21.1338 53.3633C21.1338 52.0658 20.0808 50.9939 18.7644 50.9939C17.4481 50.9939 16.395 52.0658 16.395 53.3633C16.395 54.6608 17.4481 55.7327 18.7644 55.7327Z" fill="#C97567"/>
<path d="M18.7644 90.4839C20.0808 90.4839 21.1338 89.4121 21.1338 88.1145C21.1338 86.817 20.0808 85.7451 18.7644 85.7451C17.4481 85.7451 16.395 86.7982 16.395 88.1145C16.395 89.4309 17.4481 90.4839 18.7644 90.4839Z" fill="#C97567"/>
<path d="M25.9289 71.2466C24.857 69.7234 17.7864 60.9415 11.3364 60.6783C4.49139 60.3962 0.86206 65.2855 0.655206 70.2499C0.467158 75.2144 3.70159 80.3669 10.5466 80.6302C16.9966 80.8747 24.7254 72.6758 25.9289 71.2466Z" fill="#C97567"/>
<path d="M32.0409 32.6967C32.3606 30.8539 33.5829 19.6462 29.2014 14.9074C24.5566 9.86766 18.5391 10.7703 14.8909 14.1364C11.2428 17.5024 9.88885 23.4448 14.5336 28.4656C18.9152 33.2045 30.1981 32.866 32.0409 32.6967Z" fill="#C97567"/>
<path d="M70.3088 25.9457C71.8319 24.8738 80.6138 17.8032 80.8771 11.3531C81.1403 4.50818 76.2511 0.878844 71.3054 0.671991C66.3409 0.465138 61.1884 3.71837 60.9251 10.5633C60.6619 17.0134 68.8796 24.7422 70.3088 25.9457Z" fill="#C97567"/>
<path d="M108.84 32.0573C110.683 32.377 121.89 33.5993 126.629 29.2178C131.65 24.573 130.785 18.5555 127.4 14.9073C124.034 11.2592 118.092 9.90525 113.071 14.5688C108.332 18.9504 108.671 30.2145 108.84 32.0762V32.0573Z" fill="#C97567"/>
<path d="M115.59 70.325C116.662 71.8482 123.733 80.6301 130.183 80.8933C137.028 81.1566 140.657 76.2861 140.864 71.3217C141.052 66.3572 137.818 61.2047 130.973 60.9414C124.523 60.6969 116.794 68.8958 115.59 70.325Z" fill="#C97567"/>
<path d="M109.479 108.856C109.159 110.699 107.937 121.907 112.318 126.646C116.963 131.685 122.999 130.802 126.629 127.417C130.277 124.051 131.631 118.108 126.967 113.087C122.586 108.349 111.321 108.687 109.46 108.856H109.479Z" fill="#C97567"/>
<path d="M71.2109 115.607C69.6877 116.679 60.9058 123.75 60.6425 130.2C60.3793 137.045 65.2497 140.674 70.2142 140.881C75.1787 141.069 80.3312 137.835 80.5945 130.99C80.8389 124.539 72.64 116.811 71.2109 115.607Z" fill="#C97567"/>
<path d="M32.6802 109.495C30.8373 109.176 19.6296 107.953 14.8908 112.335C9.86989 116.98 10.7349 122.997 14.1198 126.645C17.5047 130.294 23.4282 131.648 28.4491 127.003C33.1879 122.621 32.8494 111.338 32.6802 109.495Z" fill="#C97567"/>
</g>
<path d="M71.5347 65.6752C79.382 65.6752 84.416 70.117 84.416 76.1382C84.416 83.1957 79.1845 87.7856 71.0906 87.7856C66.8462 87.7856 61.8615 86.2063 58.308 83.8373L60.677 79.1487C63.5888 81.419 67.1423 82.7515 70.5477 82.7515C75.2363 82.7515 78.1975 80.3332 78.1975 76.5823C78.1975 72.9795 75.5324 70.808 70.1035 70.808C68.5242 70.808 63.4901 71.0054 61.0224 71.3015V52.9914H82.9354V58.1735H66.4513V65.6752H71.5347Z" fill="#158474"/>
<defs>
<clipPath id="clip0_44_907">
<rect width="140.209" height="140.209" fill="white" transform="translate(0.655273 0.671997)"/>
</clipPath>
</defs>
</svg>
