<svg width="141" height="141" viewBox="0 0 141 141" fill="none" xmlns="http://www.w3.org/2000/svg">
<g clip-path="url(#clip0_44_815)">
<path d="M55.3843 18.6117C55.3843 17.2954 54.3313 16.2423 53.0149 16.2423C51.6986 16.2423 50.6455 17.3142 50.6455 18.6117C50.6455 19.9093 51.6986 20.9811 53.0149 20.9811C54.3313 20.9811 55.3843 19.9281 55.3843 18.6117Z" fill="#C97567"/>
<path d="M72.7413 34.5583C72.7413 33.2419 71.6694 32.1888 70.3718 32.1888C69.0743 32.1888 68.0024 33.2419 68.0024 34.5583C68.0024 35.8746 69.0555 36.9277 70.3718 36.9277C71.6882 36.9277 72.7413 35.8558 72.7413 34.5583Z" fill="#C97567"/>
<path d="M108.922 70.7388C108.922 69.4225 107.85 68.3694 106.553 68.3694C105.255 68.3694 104.183 69.4413 104.183 70.7388C104.183 72.0363 105.236 73.1082 106.553 73.1082C107.869 73.1082 108.922 72.0363 108.922 70.7388Z" fill="#C97567"/>
<path d="M72.7413 106.919C72.7413 105.603 71.6694 104.55 70.3718 104.55C69.0743 104.55 68.0024 105.622 68.0024 106.919C68.0024 108.217 69.0555 109.289 70.3718 109.289C71.6882 109.289 72.7413 108.236 72.7413 106.919Z" fill="#C97567"/>
<path d="M36.5796 70.7388C36.5796 69.4225 35.5266 68.3694 34.2102 68.3694C32.8939 68.3694 31.8408 69.4413 31.8408 70.7388C31.8408 72.0363 32.8939 73.1082 34.2102 73.1082C35.5266 73.1082 36.5796 72.0363 36.5796 70.7388Z" fill="#C97567"/>
<path d="M90.1172 18.6117C90.1172 17.2954 89.0454 16.2423 87.7478 16.2423C86.4503 16.2423 85.3784 17.3142 85.3784 18.6117C85.3784 19.9093 86.4315 20.9811 87.7478 20.9811C89.0642 20.9811 90.1172 19.9281 90.1172 18.6117Z" fill="#C97567"/>
<path d="M55.3843 122.866C55.3843 121.549 54.3313 120.496 53.0149 120.496C51.6986 120.496 50.6455 121.549 50.6455 122.866C50.6455 124.182 51.6986 125.235 53.0149 125.235C54.3313 125.235 55.3843 124.163 55.3843 122.866Z" fill="#C97567"/>
<path d="M90.1172 122.866C90.1172 121.549 89.0454 120.496 87.7478 120.496C86.4503 120.496 85.3784 121.549 85.3784 122.866C85.3784 124.182 86.4315 125.235 87.7478 125.235C89.0642 125.235 90.1172 124.163 90.1172 122.866Z" fill="#C97567"/>
<path d="M122.499 55.7327C123.815 55.7327 124.868 54.6608 124.868 53.3633C124.868 52.0658 123.815 50.9939 122.499 50.9939C121.182 50.9939 120.129 52.0658 120.129 53.3633C120.129 54.6608 121.182 55.7327 122.499 55.7327Z" fill="#C97567"/>
<path d="M122.499 90.4839C123.815 90.4839 124.868 89.4121 124.868 88.1145C124.868 86.817 123.815 85.7451 122.499 85.7451C121.182 85.7451 120.129 86.7982 120.129 88.1145C120.129 89.4309 121.182 90.4839 122.499 90.4839Z" fill="#C97567"/>
<path d="M18.2449 55.7327C19.5612 55.7327 20.6143 54.6608 20.6143 53.3633C20.6143 52.0658 19.5612 50.9939 18.2449 50.9939C16.9286 50.9939 15.8755 52.0658 15.8755 53.3633C15.8755 54.6608 16.9286 55.7327 18.2449 55.7327Z" fill="#C97567"/>
<path d="M18.2449 90.4839C19.5612 90.4839 20.6143 89.4121 20.6143 88.1145C20.6143 86.817 19.5612 85.7451 18.2449 85.7451C16.9286 85.7451 15.8755 86.7982 15.8755 88.1145C15.8755 89.4309 16.9286 90.4839 18.2449 90.4839Z" fill="#C97567"/>
<path d="M25.4094 71.2466C24.3375 69.7234 17.2669 60.9415 10.8168 60.6783C3.97186 60.3962 0.342528 65.2855 0.135675 70.2499C-0.0523734 75.2144 3.18206 80.3669 10.027 80.6302C16.4771 80.8747 24.2059 72.6758 25.4094 71.2466Z" fill="#C97567"/>
<path d="M31.5214 32.6967C31.8411 30.8539 33.0634 19.6462 28.6819 14.9074C24.0371 9.86766 18.0195 10.7703 14.3714 14.1364C10.7233 17.5024 9.36931 23.4448 14.0141 28.4656C18.3956 33.2045 29.6785 32.866 31.5214 32.6967Z" fill="#C97567"/>
<path d="M69.7892 25.9457C71.3124 24.8738 80.0943 17.8032 80.3575 11.3531C80.6208 4.50818 75.7315 0.878844 70.7859 0.671991C65.8214 0.465138 60.6689 3.71837 60.4056 10.5633C60.1423 17.0134 68.3601 24.7422 69.7892 25.9457Z" fill="#C97567"/>
<path d="M108.32 32.0573C110.163 32.377 121.371 33.5993 126.11 29.2178C131.131 24.573 130.265 18.5555 126.881 14.9073C123.515 11.2592 117.572 9.90525 112.551 14.5688C107.813 18.9504 108.151 30.2145 108.32 32.0762V32.0573Z" fill="#C97567"/>
<path d="M115.071 70.325C116.143 71.8482 123.213 80.6301 129.663 80.8933C136.508 81.1566 140.138 76.2861 140.345 71.3217C140.533 66.3572 137.298 61.2047 130.453 60.9414C124.003 60.6969 116.274 68.8958 115.071 70.325Z" fill="#C97567"/>
<path d="M108.959 108.856C108.639 110.699 107.417 121.907 111.799 126.646C116.443 131.685 122.48 130.802 126.109 127.417C129.757 124.051 131.111 118.108 126.448 113.087C122.066 108.349 110.802 108.687 108.94 108.856H108.959Z" fill="#C97567"/>
<path d="M70.6913 115.607C69.1681 116.679 60.3863 123.75 60.123 130.2C59.8597 137.045 64.7302 140.674 69.6947 140.881C74.6592 141.069 79.8117 137.835 80.0749 130.99C80.3194 124.539 72.1205 116.811 70.6913 115.607Z" fill="#C97567"/>
<path d="M32.1606 109.495C30.3178 109.176 19.1101 107.953 14.3713 112.335C9.35036 116.98 10.2154 122.997 13.6003 126.645C16.9851 130.294 22.9087 131.648 27.9295 127.003C32.6684 122.621 32.3299 111.338 32.1606 109.495Z" fill="#C97567"/>
</g>
<path d="M61.2484 52.9914H74.5245V87.5388H68.7008V58.1735H61.2484V52.9914Z" fill="#158474"/>
<defs>
<clipPath id="clip0_44_815">
<rect width="140.209" height="140.209" fill="white" transform="translate(0.135742 0.671997)"/>
</clipPath>
</defs>
</svg>
