<svg width="141" height="141" viewBox="0 0 141 141" fill="none" xmlns="http://www.w3.org/2000/svg">
<g clip-path="url(#clip0_44_861)">
<path d="M55.2642 18.1157C55.2642 16.7994 54.2111 15.7463 52.8948 15.7463C51.5785 15.7463 50.5254 16.8182 50.5254 18.1157C50.5254 19.4133 51.5785 20.4852 52.8948 20.4852C54.2111 20.4852 55.2642 19.4321 55.2642 18.1157Z" fill="#C97567"/>
<path d="M72.6211 34.0623C72.6211 32.7459 71.5493 31.6929 70.2517 31.6929C68.9542 31.6929 67.8823 32.7459 67.8823 34.0623C67.8823 35.3786 68.9354 36.4317 70.2517 36.4317C71.5681 36.4317 72.6211 35.3598 72.6211 34.0623Z" fill="#C97567"/>
<path d="M108.802 70.2427C108.802 68.9264 107.73 67.8733 106.432 67.8733C105.135 67.8733 104.063 68.9452 104.063 70.2427C104.063 71.5402 105.116 72.6121 106.432 72.6121C107.749 72.6121 108.802 71.5402 108.802 70.2427Z" fill="#C97567"/>
<path d="M72.6211 106.423C72.6211 105.107 71.5493 104.054 70.2517 104.054C68.9542 104.054 67.8823 105.126 67.8823 106.423C67.8823 107.721 68.9354 108.793 70.2517 108.793C71.5681 108.793 72.6211 107.739 72.6211 106.423Z" fill="#C97567"/>
<path d="M36.4595 70.2427C36.4595 68.9264 35.4065 67.8733 34.0901 67.8733C32.7738 67.8733 31.7207 68.9452 31.7207 70.2427C31.7207 71.5402 32.7738 72.6121 34.0901 72.6121C35.4065 72.6121 36.4595 71.5402 36.4595 70.2427Z" fill="#C97567"/>
<path d="M89.9971 18.1157C89.9971 16.7994 88.9252 15.7463 87.6277 15.7463C86.3302 15.7463 85.2583 16.8182 85.2583 18.1157C85.2583 19.4133 86.3114 20.4852 87.6277 20.4852C88.944 20.4852 89.9971 19.4321 89.9971 18.1157Z" fill="#C97567"/>
<path d="M55.2642 122.37C55.2642 121.053 54.2111 120 52.8948 120C51.5785 120 50.5254 121.053 50.5254 122.37C50.5254 123.686 51.5785 124.739 52.8948 124.739C54.2111 124.739 55.2642 123.667 55.2642 122.37Z" fill="#C97567"/>
<path d="M89.9971 122.37C89.9971 121.053 88.9252 120 87.6277 120C86.3302 120 85.2583 121.053 85.2583 122.37C85.2583 123.686 86.3114 124.739 87.6277 124.739C88.944 124.739 89.9971 123.667 89.9971 122.37Z" fill="#C97567"/>
<path d="M122.379 55.2366C123.695 55.2366 124.748 54.1647 124.748 52.8672C124.748 51.5697 123.695 50.4978 122.379 50.4978C121.062 50.4978 120.009 51.5697 120.009 52.8672C120.009 54.1647 121.062 55.2366 122.379 55.2366Z" fill="#C97567"/>
<path d="M122.379 89.9878C123.695 89.9878 124.748 88.916 124.748 87.6184C124.748 86.3209 123.695 85.249 122.379 85.249C121.062 85.249 120.009 86.3021 120.009 87.6184C120.009 88.9348 121.062 89.9878 122.379 89.9878Z" fill="#C97567"/>
<path d="M18.1248 55.2366C19.4411 55.2366 20.4942 54.1647 20.4942 52.8672C20.4942 51.5697 19.4411 50.4978 18.1248 50.4978C16.8084 50.4978 15.7554 51.5697 15.7554 52.8672C15.7554 54.1647 16.8084 55.2366 18.1248 55.2366Z" fill="#C97567"/>
<path d="M18.1248 89.9878C19.4411 89.9878 20.4942 88.916 20.4942 87.6184C20.4942 86.3209 19.4411 85.249 18.1248 85.249C16.8084 85.249 15.7554 86.3021 15.7554 87.6184C15.7554 88.9348 16.8084 89.9878 18.1248 89.9878Z" fill="#C97567"/>
<path d="M25.2893 70.7504C24.2174 69.2272 17.1468 60.4453 10.6967 60.1821C3.85174 59.9 0.222411 64.7892 0.0155579 69.7537C-0.172491 74.7182 3.06194 79.8707 9.9069 80.134C16.357 80.3785 24.0858 72.1795 25.2893 70.7504Z" fill="#C97567"/>
<path d="M31.4013 32.2008C31.721 30.3579 32.9433 19.1502 28.5618 14.4114C23.917 9.37169 17.8994 10.2743 14.2513 13.6404C10.6031 17.0065 9.2492 22.9488 13.894 27.9697C18.2755 32.7085 29.5584 32.37 31.4013 32.2008Z" fill="#C97567"/>
<path d="M69.6691 25.4495C71.1923 24.3776 79.9742 17.307 80.2374 10.8569C80.5007 4.01196 75.6114 0.382628 70.6658 0.175775C65.7013 -0.0310782 60.5488 3.22216 60.2855 10.0671C60.0222 16.5172 68.2399 24.246 69.6691 25.4495Z" fill="#C97567"/>
<path d="M108.2 31.5615C110.043 31.8812 121.251 33.1035 125.989 28.722C131.01 24.0772 130.145 18.0596 126.76 14.4115C123.394 10.7633 117.452 9.4094 112.431 14.073C107.692 18.4545 108.031 29.7186 108.2 31.5803V31.5615Z" fill="#C97567"/>
<path d="M114.951 69.8289C116.023 71.3521 123.093 80.134 129.543 80.3972C136.388 80.6605 140.018 75.79 140.224 70.8256C140.412 65.8611 137.178 60.7086 130.333 60.4453C123.883 60.2008 116.154 68.3997 114.951 69.8289Z" fill="#C97567"/>
<path d="M108.839 108.36C108.519 110.203 107.297 121.411 111.678 126.15C116.323 131.189 122.36 130.306 125.989 126.921C129.637 123.555 130.991 117.612 126.327 112.591C121.946 107.853 110.682 108.191 108.82 108.36H108.839Z" fill="#C97567"/>
<path d="M70.5712 115.111C69.048 116.183 60.2662 123.254 60.0029 129.704C59.7396 136.549 64.6101 140.178 69.5746 140.385C74.539 140.573 79.6916 137.338 79.9548 130.493C80.1993 124.043 72.0004 116.315 70.5712 115.111Z" fill="#C97567"/>
<path d="M32.0405 109C30.1976 108.68 18.99 107.458 14.2511 111.839C9.23025 116.484 10.0953 122.501 13.4801 126.15C16.865 129.798 22.7885 131.152 27.8094 126.507C32.5482 122.125 32.2098 110.842 32.0405 109Z" fill="#C97567"/>
</g>
<path d="M65.5259 81.8606H83.1451V87.0427H57.8267V82.749L71.0041 69.1274C73.6199 66.5117 75.3966 63.7479 75.3966 61.7737C75.3966 59.0099 73.1263 57.3319 69.3261 57.3319C66.2168 57.3319 62.5647 59.0099 59.6035 61.6257L57.2345 57.1345C61.0841 54.1239 65.5752 52.2485 70.1158 52.2485C76.8772 52.2485 81.4671 55.6539 81.4671 60.9347C81.4671 64.3895 78.7526 68.2884 74.9524 72.2367L65.5259 81.8606Z" fill="#158474"/>
<defs>
<clipPath id="clip0_44_861">
<rect width="140.209" height="140.209" fill="white" transform="translate(0.015625 0.175781)"/>
</clipPath>
</defs>
</svg>
