<svg width="207" height="207" viewBox="0 0 207 207" fill="none" xmlns="http://www.w3.org/2000/svg">
<g clip-path="url(#clip0_40_281)">
<path d="M188.843 76.9177H173.317V61.7755H174.302V75.9325H188.843V76.9177Z" fill="#3C7F79"/>
<path d="M174.302 145.387H173.317V130.245H188.843V131.23H174.302V145.387Z" fill="#3C7F79"/>
<path d="M33.2349 76.9177H17.7085V75.9325H32.2497V61.7755H33.2349V76.9177Z" fill="#F9D9AA"/>
<path d="M130.925 189.149H129.939V173.623H145.082V174.608H130.925V189.149Z" fill="#3C7F79"/>
<path d="M76.602 33.5404H61.4697V32.5552H75.6169V18.014H76.602V33.5404Z" fill="#F9D9AA"/>
<path d="M145.082 33.5404H129.939V18.014H130.925V32.5552H145.082V33.5404Z" fill="#3C7F79"/>
<path d="M33.2349 145.387H32.2497V131.23H17.7085V130.245H33.2349V145.387Z" fill="#F9D9AA"/>
<path d="M76.602 189.149H75.6169V174.608H61.4697V173.623H76.602V189.149Z" fill="#F9D9AA"/>
<path d="M59.7163 103.518C58.9084 102.473 53.6673 96.444 49.0862 96.444C44.2293 96.444 41.7959 100 41.7959 103.518C41.7959 107.035 44.2293 110.591 49.0862 110.591C53.6673 110.591 58.9084 104.562 59.7163 103.518Z" fill="#C97567"/>
<path d="M146.353 103.518C147.16 102.473 152.402 96.444 156.973 96.444C161.82 96.444 164.263 100 164.263 103.518C164.263 107.035 161.83 110.591 156.973 110.591C152.392 110.591 147.151 104.562 146.353 103.518Z" fill="#C97567"/>
<path d="M103.409 206.596C102.355 205.789 96.3354 200.547 96.3354 195.976C96.3354 191.129 99.8919 188.686 103.409 188.686C106.926 188.686 110.483 191.119 110.483 195.976C110.483 200.557 104.453 205.798 103.409 206.596Z" fill="#3C7F79"/>
<path d="M0.250977 103.715C1.05882 102.66 6.29996 96.641 10.8712 96.641C15.7281 96.641 18.1615 100.197 18.1615 103.715C18.1615 107.232 15.7281 110.788 10.8712 110.788C6.29996 110.788 1.04897 104.759 0.250977 103.715Z" fill="#3C7F79"/>
<path d="M103.143 0.556763C104.187 1.36461 110.216 6.60574 110.216 11.177C110.216 16.0339 106.66 18.4673 103.143 18.4673C99.6258 18.4673 96.0693 16.0339 96.0693 11.177C96.0693 6.60574 102.099 1.35476 103.143 0.556763Z" fill="#3C7F79"/>
<path d="M206.29 103.449C205.483 104.503 200.241 110.522 195.66 110.522C190.813 110.522 188.37 106.966 188.37 103.449C188.37 99.9315 190.804 96.375 195.66 96.375C200.241 96.375 205.483 102.404 206.29 103.449Z" fill="#3C7F79"/>
<path d="M43.1753 33.7179C43.0473 33.5898 42.9093 33.4617 42.7714 33.3435C42.6532 33.2056 42.535 33.0775 42.397 32.9396C39.3528 29.8954 31.8754 30.4175 30.6439 30.585C30.4863 31.8165 29.9641 39.294 33.0083 42.3382C33.1364 42.4761 33.2743 42.5943 33.4024 42.7125C33.5206 42.8505 33.6487 42.9884 33.7767 43.1165C36.8209 46.1607 44.2984 45.6385 45.5299 45.471C45.6875 44.2396 46.2097 36.7522 43.1655 33.7179H43.1753Z" fill="#F9D9AA"/>
<path d="M110.305 38.5847C110.305 38.3975 110.305 38.2103 110.285 38.033C110.295 37.8557 110.305 37.6685 110.305 37.4813C110.305 33.1761 104.64 28.2502 103.655 27.5015C102.67 28.2601 97.0151 33.1859 97.0151 37.4813C97.0151 37.6685 97.0151 37.8458 97.0348 38.033C97.025 38.2103 97.0151 38.3975 97.0151 38.5847C97.0151 42.8899 102.67 47.8059 103.655 48.5645C104.64 47.8059 110.305 42.8899 110.305 38.5847Z" fill="#C97567"/>
<path d="M173.386 43.4809C173.514 43.3528 173.642 43.2149 173.76 43.0769C173.898 42.9587 174.036 42.8307 174.164 42.7026C177.208 39.6584 176.686 32.1809 176.519 30.9494C175.287 30.7918 167.81 30.2697 164.766 33.3139C164.628 33.4419 164.509 33.5798 164.391 33.7178C164.253 33.836 164.115 33.9641 163.987 34.0921C160.943 37.1363 161.465 44.6138 161.623 45.8453C162.854 46.0128 170.342 46.5251 173.376 43.4809H173.386Z" fill="#F9D9AA"/>
<path d="M163.623 173.692C163.751 173.82 163.889 173.948 164.027 174.066C164.145 174.204 164.273 174.332 164.401 174.47C167.445 177.514 174.923 176.992 176.154 176.824C176.312 175.593 176.834 168.106 173.8 165.071C173.672 164.933 173.534 164.815 173.396 164.697C173.278 164.559 173.149 164.431 173.021 164.303C169.987 161.259 162.5 161.781 161.268 161.938C161.111 163.17 160.588 170.657 163.623 173.692Z" fill="#F9D9AA"/>
<path d="M96.5024 168.835C96.5024 169.022 96.5024 169.199 96.5221 169.386C96.5123 169.564 96.5024 169.751 96.5024 169.938C96.5024 174.243 102.167 179.159 103.152 179.918C104.138 179.159 109.792 174.233 109.792 169.938C109.792 169.751 109.792 169.564 109.773 169.386C109.783 169.209 109.792 169.022 109.792 168.835C109.792 164.529 104.138 159.603 103.152 158.855C102.167 159.613 96.5024 164.539 96.5024 168.835Z" fill="#C97567"/>
<path d="M33.4121 163.928C33.284 164.057 33.1559 164.194 33.0377 164.332C32.8998 164.451 32.7717 164.579 32.6338 164.707C29.5896 167.741 30.1117 175.228 30.2694 176.46C31.5008 176.627 38.9882 177.14 42.0225 174.105C42.1605 173.977 42.2787 173.839 42.3969 173.701C42.5348 173.583 42.6629 173.455 42.8008 173.327C45.8352 170.283 45.3229 162.805 45.1554 161.574C43.9239 161.416 36.4464 160.894 33.4022 163.928H33.4121Z" fill="#F9D9AA"/>
<path d="M180.42 103.705C180.42 101.695 178.794 100.069 176.785 100.069C174.775 100.069 173.149 101.695 173.149 103.705C173.149 105.715 174.775 107.34 176.785 107.34C178.794 107.34 180.42 105.715 180.42 103.705Z" fill="#F9D9AA"/>
<path d="M157.859 49.2443C156.441 47.8256 154.135 47.8256 152.717 49.2443C151.298 50.6629 151.298 52.9683 152.717 54.3869C154.135 55.8056 156.441 55.8056 157.859 54.3869C159.278 52.9683 159.278 50.6629 157.859 49.2443Z" fill="#C97567"/>
<path d="M48.9483 49.2443C47.5296 50.6629 47.5296 52.9683 48.9483 54.3869C50.3669 55.8056 52.6722 55.8056 54.0909 54.3869C55.5095 52.9683 55.5095 50.6629 54.0909 49.2443C52.6722 47.8256 50.3669 47.8256 48.9483 49.2443Z" fill="#C97567"/>
<path d="M26.3877 103.705C26.3877 105.715 28.0132 107.34 30.023 107.34C32.0328 107.34 33.6583 105.715 33.6583 103.705C33.6583 101.695 32.0229 100.069 30.023 100.069C28.0132 100.069 26.3877 101.695 26.3877 103.705Z" fill="#F9D9AA"/>
<path d="M48.9483 158.165C50.3669 159.584 52.6722 159.584 54.0909 158.165C55.5095 156.746 55.5095 154.441 54.0909 153.022C52.6722 151.604 50.3669 151.604 48.9483 153.022C47.5296 154.441 47.5296 156.746 48.9483 158.165Z" fill="#C97567"/>
<path d="M157.859 158.165C159.278 156.746 159.278 154.441 157.859 153.022C156.441 151.604 154.135 151.604 152.717 153.022C151.298 154.441 151.298 156.746 152.717 158.165C154.135 159.584 156.441 159.584 157.859 158.165Z" fill="#C97567"/>
<path d="M103.872 80.0506L103.271 79.5875L102.67 80.0506C102.561 80.1392 96.3844 85.0947 90.8674 91.9318H90.8477C90.8477 91.9318 90.8083 91.981 90.759 92.0697C86.3257 97.5965 82.3555 104.335 82.3555 110.749C82.3555 117.162 84.3849 122.236 88.1779 126.108L88.1582 126.127C88.237 126.206 88.3256 126.265 88.4045 126.334C88.5818 126.502 88.7394 126.689 88.9167 126.856C92.7195 130.334 97.8129 132.255 103.261 132.255C108.709 132.255 113.802 130.344 117.605 126.856C121.9 122.925 124.166 117.359 124.166 110.739C124.166 96.306 104.059 80.1885 103.862 80.0309L103.872 80.0506ZM84.3357 110.758C84.3357 106.877 85.9415 102.828 88.2271 99.025C87.4291 103.212 87.6065 108.739 91.5275 114.138C96.276 120.689 102.729 121.97 105.655 122.206C104.926 123.034 104.098 123.822 103.172 124.581C100.079 127.103 93.616 128.551 89.5276 124.709H89.5177C86.4045 121.526 84.3455 116.916 84.3455 110.758H84.3357ZM102.906 111.714C98.6207 107.438 96.1282 104.995 95.0248 103.921L103.34 94.6804C105.074 96.3651 109.477 101.123 109.921 106.65C110.315 111.586 109.734 115.487 108.019 118.778C107.438 117.172 106.049 114.847 102.896 111.704L102.906 111.714ZM103.271 130.295C100.896 130.295 98.4828 129.881 96.207 129.034C99.4384 128.925 102.512 127.644 104.404 126.108C110.354 121.26 112.591 115.399 111.881 106.503C111.261 98.8182 104.207 92.7889 103.911 92.5327L103.182 91.9219L92.286 104.03L92.9757 104.69C92.9757 104.69 95.4583 107.074 101.507 113.113C105.379 116.975 106.216 119.28 106.394 120.275C104.305 120.187 97.7636 119.398 93.1136 112.985C86.0893 103.281 92.2466 93.4095 92.5126 92.9958C96.8573 87.6561 101.626 83.4987 103.281 82.1194C106.571 84.8681 122.216 98.6211 122.216 110.768C122.216 124.186 112.403 130.304 103.281 130.304L103.271 130.295Z" fill="#3C7F79"/>
</g>
<defs>
<clipPath id="clip0_40_281">
<rect width="206.04" height="206.04" fill="white" transform="translate(0.250977 0.556641)"/>
</clipPath>
</defs>
</svg>
