<svg width="80" height="79" viewBox="0 0 80 79" fill="none" xmlns="http://www.w3.org/2000/svg">
<path d="M79.2551 9.47H69.5551V0H70.5551V8.47H79.2551V9.47Z" fill="#C97567"/>
<path d="M10.4451 9.47H0.745117V8.47H9.44512V0H10.4451V9.47Z" fill="#C97567"/>
<path d="M10.4451 78.86H9.44512V70.4H0.745117V69.4H10.4451V78.86Z" fill="#C97567"/>
<path d="M70.5551 78.86H69.5551V69.4H79.2551V70.4H70.5551V78.86Z" fill="#C97567"/>
<path d="M32.0251 11.71C32.0251 11.01 31.4651 10.45 30.7651 10.45C30.0651 10.45 29.5051 11.02 29.5051 11.71C29.5051 12.4 30.0651 12.97 30.7651 12.97C31.4651 12.97 32.0251 12.41 32.0251 11.71Z" fill="#C97567"/>
<path d="M41.2651 30.19C41.2651 29.49 40.6951 28.93 40.0051 28.93C39.3151 28.93 38.7451 29.49 38.7451 30.19C38.7451 30.89 39.3051 31.45 40.0051 31.45C40.7051 31.45 41.2651 30.88 41.2651 30.19Z" fill="#C97567"/>
<path d="M50.5051 39.43C50.5051 38.73 49.9351 38.17 49.2451 38.17C48.5551 38.17 47.9851 38.74 47.9851 39.43C47.9851 40.12 48.5451 40.69 49.2451 40.69C49.9451 40.69 50.5051 40.12 50.5051 39.43Z" fill="#C97567"/>
<path d="M41.2651 48.67C41.2651 47.97 40.6951 47.41 40.0051 47.41C39.3151 47.41 38.7451 47.98 38.7451 48.67C38.7451 49.36 39.3051 49.93 40.0051 49.93C40.7051 49.93 41.2651 49.37 41.2651 48.67Z" fill="#C97567"/>
<path d="M32.0251 39.43C32.0251 38.73 31.4651 38.17 30.7651 38.17C30.0651 38.17 29.5051 38.74 29.5051 39.43C29.5051 40.12 30.0651 40.69 30.7651 40.69C31.4651 40.69 32.0251 40.12 32.0251 39.43Z" fill="#C97567"/>
<path d="M50.5051 11.71C50.5051 11.01 49.9351 10.45 49.2451 10.45C48.5551 10.45 47.9851 11.02 47.9851 11.71C47.9851 12.4 48.5451 12.97 49.2451 12.97C49.9451 12.97 50.5051 12.41 50.5051 11.71Z" fill="#C97567"/>
<path d="M32.0251 67.15C32.0251 66.45 31.4651 65.89 30.7651 65.89C30.0651 65.89 29.5051 66.45 29.5051 67.15C29.5051 67.85 30.0651 68.41 30.7651 68.41C31.4651 68.41 32.0251 67.84 32.0251 67.15Z" fill="#C97567"/>
<path d="M50.5051 67.15C50.5051 66.45 49.9351 65.89 49.2451 65.89C48.5551 65.89 47.9851 66.45 47.9851 67.15C47.9851 67.85 48.5451 68.41 49.2451 68.41C49.9451 68.41 50.5051 67.84 50.5051 67.15Z" fill="#C97567"/>
<path d="M67.7151 31.45C68.4151 31.45 68.9751 30.88 68.9751 30.19C68.9751 29.5 68.4151 28.93 67.7151 28.93C67.0151 28.93 66.4551 29.5 66.4551 30.19C66.4551 30.88 67.0151 31.45 67.7151 31.45Z" fill="#C97567"/>
<path d="M67.7151 49.93C68.4151 49.93 68.9751 49.36 68.9751 48.67C68.9751 47.98 68.4151 47.41 67.7151 47.41C67.0151 47.41 66.4551 47.97 66.4551 48.67C66.4551 49.37 67.0151 49.93 67.7151 49.93Z" fill="#C97567"/>
<path d="M12.2851 31.45C12.9851 31.45 13.5451 30.88 13.5451 30.19C13.5451 29.5 12.9851 28.93 12.2851 28.93C11.5851 28.93 11.0251 29.5 11.0251 30.19C11.0251 30.88 11.5851 31.45 12.2851 31.45Z" fill="#C97567"/>
<path d="M12.2851 49.93C12.9851 49.93 13.5451 49.36 13.5451 48.67C13.5451 47.98 12.9851 47.41 12.2851 47.41C11.5851 47.41 11.0251 47.97 11.0251 48.67C11.0251 49.37 11.5851 49.93 12.2851 49.93Z" fill="#C97567"/>
<path d="M26.0851 39.7C25.5151 38.89 21.7551 34.22 18.3251 34.08C14.6851 33.93 12.7551 36.53 12.6451 39.17C12.5451 41.81 14.2651 44.55 17.9051 44.69C21.3351 44.82 25.4451 40.46 26.0851 39.7Z" fill="#29544F"/>
<path d="M29.3351 29.21C29.5051 28.23 30.1551 22.27 27.8251 19.75C25.3551 17.07 22.1551 17.55 20.2151 19.34C18.2751 21.13 17.5551 24.29 20.0251 26.96C22.3551 29.48 28.3551 29.3 29.3351 29.21Z" fill="#29544F"/>
<path d="M39.6851 25.61C40.4951 25.04 45.1651 21.28 45.3051 17.85C45.4451 14.21 42.8551 12.28 40.2151 12.18C37.5751 12.07 34.8351 13.8 34.6951 17.44C34.5551 20.87 38.9251 24.98 39.6851 25.62V25.61Z" fill="#29544F"/>
<path d="M50.1751 28.86C51.1551 29.03 57.1151 29.68 59.6351 27.35C62.3051 24.88 61.8451 21.68 60.0451 19.74C58.2551 17.8 55.0951 17.08 52.4251 19.56C49.9051 21.89 50.0851 27.88 50.1751 28.87V28.86Z" fill="#29544F"/>
<path d="M53.7751 39.21C54.3451 40.02 58.1051 44.69 61.5351 44.83C65.1751 44.97 67.1051 42.38 67.2151 39.74C67.3151 37.1 65.5951 34.36 61.9551 34.22C58.5251 34.09 54.4151 38.45 53.7751 39.21Z" fill="#29544F"/>
<path d="M50.5251 49.7C50.3551 50.68 49.7051 56.64 52.0351 59.16C54.5051 61.84 57.7151 61.37 59.6451 59.57C61.5851 57.78 62.3051 54.62 59.8251 51.95C57.4951 49.43 51.5051 49.61 50.5151 49.7H50.5251Z" fill="#29544F"/>
<path d="M40.1751 53.29C39.3651 53.86 34.6951 57.62 34.5551 61.05C34.4151 64.69 37.0051 66.62 39.6451 66.73C42.2851 66.83 45.0251 65.11 45.1651 61.47C45.2951 58.04 40.9351 53.93 40.1751 53.29Z" fill="#C97567"/>
<path d="M29.6851 50.04C28.7051 49.87 22.7451 49.22 20.2251 51.55C17.5551 54.02 18.0151 57.22 19.8151 59.16C21.6051 61.1 24.7651 61.82 27.4351 59.35C29.9551 57.02 29.7751 51.02 29.6851 50.04Z" fill="#29544F"/>
</svg>
