<svg width="965" height="320" viewBox="0 0 965 320" fill="none" xmlns="http://www.w3.org/2000/svg">
<g clip-path="url(#clip0_40_361)">
<path d="M699.131 279.276C685.769 279.276 673.269 274.59 663.945 266.078C653.425 256.475 647.856 242.815 647.856 226.6V116.946C647.856 102.978 655.431 86.737 670.375 68.6732C681.937 54.6921 694.489 43.9462 698.347 40.9805L699.131 40.3771L699.916 40.9805C703.774 43.9462 716.326 54.6921 727.901 68.6732C742.845 86.737 750.42 102.978 750.42 116.946V226.6C750.42 242.828 744.851 256.475 734.331 266.078C725.007 274.59 712.507 279.276 699.144 279.276H699.131ZM699.131 43.6381C694.617 47.2329 683.068 57.3625 672.356 70.3166C658.016 87.6614 650.428 103.787 650.428 116.959V226.613C650.428 261.046 675.674 276.734 699.131 276.734C722.589 276.734 747.835 261.046 747.835 226.613V116.959C747.835 103.787 740.26 87.6614 725.907 70.3294C715.182 57.3625 703.633 47.2457 699.131 43.651V43.6381Z" fill="#F9D9AA"/>
<path d="M699.131 279.61L698.347 279.007C694.489 276.041 681.937 265.295 670.375 251.314C655.431 233.25 647.869 217.009 647.869 203.041V93.3872C647.869 77.1593 653.424 63.512 663.957 53.9088C673.281 45.3968 685.782 40.7108 699.144 40.7108C712.506 40.7108 725.007 45.3968 734.331 53.9088C744.851 63.512 750.42 77.1722 750.42 93.3872V203.041C750.42 217.009 742.845 233.25 727.901 251.314C716.326 265.308 703.774 276.041 699.916 279.007L699.131 279.61ZM699.131 43.2785C675.673 43.2785 650.428 58.9672 650.428 93.4001V203.054C650.428 216.226 658.003 232.351 672.355 249.696C683.081 262.663 694.63 272.78 699.131 276.375C703.632 272.78 715.181 262.663 725.907 249.696C740.247 232.351 747.835 216.226 747.835 203.054V93.4001C747.835 58.9672 722.589 43.2785 699.131 43.2785Z" fill="#F9D9AA"/>
<path d="M719.991 153.818C718.487 135.151 701.241 120.438 700.507 119.822L699.556 119.026L673.899 147.502L674.799 148.362C674.799 148.362 680.985 154.306 696.109 169.378C707.8 181.036 708.764 187.327 708.725 189.24C705.407 189.252 686.386 188.495 673.384 170.585C655.354 145.743 671.674 119.706 671.841 119.449L669.68 118.063C669.5 118.332 652.241 145.807 671.314 172.087C684.444 190.177 702.887 191.743 708.044 191.807C705.819 194.58 703.208 197.187 700.16 199.664C692.109 206.225 675.262 209.961 664.575 199.921L662.813 201.796C668.69 207.316 675.571 208.703 681.011 208.703C681.924 208.703 682.798 208.664 683.621 208.6C690.322 208.061 697.112 205.467 701.794 201.654C716.313 189.856 721.766 175.554 720.017 153.818H719.991ZM709.278 190.1L709.343 190.125C709.343 190.125 709.304 190.177 709.291 190.19V190.1H709.278ZM711.156 187.417C710.552 183.86 707.812 177.428 697.922 167.568C686.001 155.693 679.66 149.504 677.474 147.386L699.774 122.633C703.363 125.959 716.21 138.861 717.432 154.036C718.538 167.863 716.622 178.532 711.156 187.417Z" fill="#F9D9AA"/>
<path d="M699.671 216.752C686.373 216.752 673.937 212.079 664.665 203.619C654.196 194.067 648.666 180.484 648.666 164.346C648.666 128.924 698.398 89.1633 698.9 88.7781L699.684 88.1747L700.469 88.7781C700.97 89.1633 750.69 128.937 750.69 164.346C750.69 180.484 745.16 194.067 734.691 203.619C725.419 212.092 712.982 216.752 699.684 216.752H699.671ZM699.671 91.4485C693.357 96.6353 651.225 132.532 651.225 164.346C651.225 198.586 676.329 214.185 699.659 214.185C722.988 214.185 748.092 198.586 748.092 164.346C748.092 132.557 705.973 96.6481 699.659 91.4614L699.671 91.4485Z" fill="#F9D9AA"/>
<path d="M785.247 133.533V130.966C791.934 130.966 797.387 125.535 797.387 118.846H799.959C799.959 126.947 793.362 133.533 785.247 133.533Z" fill="#F9D9AA"/>
<path d="M799.959 146.603H797.387C797.387 139.927 791.947 134.483 785.247 134.483V131.915C793.362 131.915 799.959 138.502 799.959 146.603Z" fill="#F9D9AA"/>
<path d="M800.962 146.603H798.39C798.39 138.502 804.988 131.915 813.103 131.915V134.483C806.415 134.483 800.962 139.914 800.962 146.603Z" fill="#F9D9AA"/>
<path d="M813.103 133.533C804.988 133.533 798.39 126.947 798.39 118.846H800.962C800.962 125.522 806.402 130.966 813.103 130.966V133.533Z" fill="#F9D9AA"/>
<path d="M842.502 202.438H783.986L783.96 201.154V170.855H813.231C829.371 170.855 842.502 183.963 842.502 200.075V202.438ZM786.533 199.87H839.93C839.814 185.272 827.88 173.423 813.231 173.423H786.533V199.87Z" fill="#F9D9AA"/>
<path d="M897.032 202.438H895.746V173.14H926.328L926.277 174.475C925.621 190.151 912.773 202.438 897.045 202.438H897.032ZM898.318 175.708V199.844C911.629 199.215 922.393 188.944 923.602 175.708H898.318Z" fill="#F9D9AA"/>
<path d="M895.012 172.1H838.04L838.091 170.765C839.351 140.928 863.787 117.562 893.726 117.562H895.012V172.113V172.1ZM840.727 169.532H892.427V120.143C864.905 120.785 842.554 142.148 840.727 169.532Z" fill="#F9D9AA"/>
<path d="M950.982 185.465L936.964 171.471L950.982 157.477L965 171.471L950.982 185.465ZM940.603 171.471L950.982 181.832L961.361 171.471L950.982 161.11L940.603 171.471Z" fill="#F9D9AA"/>
<path d="M167.613 201.154H165.041C165.041 193.053 171.639 186.466 179.754 186.466V189.034C173.066 189.034 167.613 194.465 167.613 201.154Z" fill="#F9D9AA"/>
<path d="M179.754 188.084C171.639 188.084 165.041 181.498 165.041 173.397H167.613C167.613 180.073 173.053 185.516 179.754 185.516V188.084Z" fill="#F9D9AA"/>
<path d="M151.897 188.084V185.516C158.585 185.516 164.038 180.086 164.038 173.397H166.61C166.61 181.498 160.013 188.084 151.897 188.084Z" fill="#F9D9AA"/>
<path d="M166.61 201.154H164.038C164.038 194.478 158.598 189.034 151.897 189.034V186.466C160.013 186.466 166.61 193.053 166.61 201.154Z" fill="#F9D9AA"/>
<path d="M181.04 149.132H151.769C135.629 149.132 122.498 136.024 122.498 119.912V117.549H181.014L181.04 118.833V149.132ZM125.083 120.13C125.199 134.727 137.133 146.577 151.782 146.577H178.481V120.13H125.083Z" fill="#F9D9AA"/>
<path d="M69.2545 146.86H38.6719L38.7233 145.524C39.3792 129.848 52.227 117.562 67.9556 117.562H69.2417V146.86H69.2545ZM41.3983 144.292H66.6824V120.155C53.3716 120.784 42.6072 131.055 41.3983 144.292Z" fill="#F9D9AA"/>
<path d="M71.2739 202.437H69.9878V147.887H126.961L126.909 149.222C125.649 179.059 101.213 202.425 71.2739 202.425V202.437ZM72.5599 150.454V199.844C100.082 199.202 122.434 177.839 124.26 150.454H72.5599Z" fill="#F9D9AA"/>
<path d="M14.0181 162.51L0 148.516L14.0181 134.522L28.0363 148.516L14.0181 162.51ZM3.63957 148.516L14.0181 158.876L24.3967 148.516L14.0181 138.155L3.63957 148.516Z" fill="#F9D9AA"/>
<path d="M569.908 320C556.635 320 544.225 315.339 534.965 306.892C524.522 297.353 518.992 283.795 518.992 267.683V158.825C518.992 144.947 526.516 128.822 541.344 110.899C552.829 97.0206 565.291 86.3518 569.123 83.4117L569.908 82.8083L570.692 83.4117C574.525 86.3646 586.999 97.0462 598.471 110.912C613.299 128.847 620.823 144.972 620.823 158.838V267.696C620.823 283.808 615.306 297.366 604.85 306.905C595.59 315.352 583.18 320.013 569.908 320.013V320ZM569.908 86.0693C565.432 89.6384 553.973 99.691 543.325 112.542C529.088 129.759 521.564 145.768 521.564 158.838V267.696C521.564 301.872 546.63 317.445 569.908 317.445C593.185 317.445 618.251 301.885 618.251 267.696V158.838C618.251 145.768 610.727 129.759 596.491 112.542C585.868 99.7038 574.396 89.6384 569.92 86.0565L569.908 86.0693Z" fill="#F9D9AA"/>
<path d="M620.051 194.516H518.928V97.2647C518.928 43.6382 562.628 9.15527e-05 616.36 9.15527e-05H621.35V194.439L620.064 194.516H620.051ZM521.5 191.949H618.765V2.5678H616.347C564.043 2.5678 521.487 45.0505 521.487 97.2647V191.949H521.5Z" fill="#F9D9AA"/>
<path d="M597.262 237.243C584.646 219.872 566.975 218.28 561.882 218.19C564.017 215.546 566.512 213.055 569.419 210.68C577.174 204.363 593.404 200.769 603.705 210.423L605.467 208.549C598.831 202.322 590.87 201.539 585.366 201.975C578.897 202.489 572.338 205.005 567.798 208.69C553.78 220.091 548.52 233.905 550.192 254.883C551.645 272.908 568.3 287.121 569.007 287.711L569.959 288.507L594.78 260.968L593.88 260.108C593.88 260.108 587.899 254.382 573.315 239.836C562.114 228.68 561.123 222.62 561.149 220.758C564.467 220.758 582.691 221.554 595.179 238.745C612.553 262.689 596.838 287.775 596.67 288.032L598.831 289.419C598.998 289.149 615.678 262.625 597.262 237.243ZM560.57 219.86V219.885H560.558C560.558 219.885 560.558 219.885 560.57 219.86ZM571.502 241.659C582.948 253.06 589.07 259.03 591.205 261.11L569.74 284.925C566.229 281.677 553.921 269.275 552.751 254.678C551.684 241.403 553.523 231.145 558.744 222.594C559.374 226.061 562.062 232.236 571.515 241.659H571.502Z" fill="#F9D9AA"/>
<path d="M569.83 318.28L569.046 317.676C565.342 314.826 553.278 304.504 542.193 291.088C527.853 273.743 520.574 258.157 520.574 244.741C520.574 229.155 525.911 216.047 536.032 206.803C544.983 198.625 556.995 194.119 569.843 194.119C582.691 194.119 594.69 198.625 603.654 206.803C613.762 216.034 619.112 229.155 619.112 244.728C619.112 258.144 611.846 273.743 597.493 291.088C586.395 304.504 574.344 314.826 570.627 317.676L569.843 318.28H569.83ZM569.843 196.686C547.35 196.686 523.159 211.72 523.159 244.741C523.159 257.361 530.425 272.831 544.186 289.457C554.436 301.847 565.496 311.552 569.843 315.032C574.19 311.552 585.25 301.859 595.5 289.457C609.261 272.831 616.527 257.361 616.527 244.728C616.527 211.72 592.323 196.686 569.843 196.686Z" fill="#F9D9AA"/>
<path d="M463.949 261.854H461.376V238.077H484.616V240.645H463.949V261.854Z" fill="#F9D9AA"/>
<path d="M429.225 75.4392H404.996V72.8715H426.653V50.648H429.225V75.4392Z" fill="#F9D9AA"/>
<path d="M463.936 195.993C455.422 195.993 445.262 195.467 435.205 193.798C425.624 192.206 417.342 189.766 410.59 186.544L411.696 184.233C418.229 187.353 426.28 189.728 435.617 191.281C454.844 194.465 474.971 193.348 481.967 192.565C482.726 184.682 486.892 131.762 465.261 110.167C454.779 99.7041 442.433 94.4916 429.521 95.0565C418.075 95.5701 407.041 100.577 398.437 109.153C390.862 116.715 385.962 126.434 384.637 136.512L382.091 136.178C383.48 125.535 388.65 115.303 396.623 107.33C405.677 98.2918 417.316 93.0152 429.405 92.476C443.05 91.8597 456.078 97.3546 467.087 108.332C491.226 132.429 484.5 193.258 484.423 193.862L484.295 194.837L483.317 194.966C480.05 195.39 472.9 195.967 463.936 195.967V195.993Z" fill="#F9D9AA"/>
<path d="M414.435 148.003C411.94 148.003 409.394 147.862 406.757 147.605C397.794 146.693 387.827 141.519 381.345 134.432L383.248 132.699C389.318 139.35 398.655 144.19 407.015 145.037C412.288 145.576 417.252 145.551 421.984 144.947C423.052 144.215 430.434 138.31 430.421 114.648C430.395 88.1881 430.19 77.6733 430.19 77.5706L430.164 76.3253L477.067 73.8603L477.17 75.0928C477.272 76.2739 479.459 104.146 464.476 121.722C449.005 139.85 433.688 148.003 414.422 148.003H414.435ZM432.787 78.7646C432.839 82.2438 432.98 93.2336 432.993 114.648C433.006 131.89 429.174 140.312 426.267 144.215C439.462 141.417 450.934 133.636 462.521 120.053C475.073 105.327 474.919 82.1411 474.687 76.5564L432.787 78.7646Z" fill="#F9D9AA"/>
<path d="M426.408 271.124L425.457 270.328C424.557 269.57 403.259 251.404 401.407 228.397C399.26 201.578 405.986 183.925 423.888 169.366C429.907 164.462 452.066 149.363 484.281 160.815L483.42 163.229C452.477 152.239 431.27 166.67 425.508 171.356C420.917 175.092 417.097 179.046 413.985 183.321L414.847 183.642C414.847 183.642 412.609 191.538 430.485 209.358C449.236 228.051 456.837 235.343 456.914 235.42L457.814 236.28L426.396 271.137L426.408 271.124ZM412.236 185.915C405.086 197.136 402.565 210.616 403.979 228.192C405.523 247.463 422.062 263.755 426.19 267.542L454.252 236.409C451.757 233.995 443.86 226.318 428.685 211.181C415.606 198.137 412.673 190.023 412.236 185.928V185.915Z" fill="#F9D9AA"/>
<path d="M332.796 203.195C324.102 191.204 312.077 189.484 307.602 189.278C309.029 187.584 310.688 185.979 312.566 184.451C318.083 179.958 329.619 177.39 336.924 184.246L338.686 182.371C329.928 174.155 316.951 177.557 310.945 182.448C300.695 190.78 296.837 200.884 298.072 216.201C299.126 229.399 311.305 239.785 311.82 240.222L312.772 241.018L331.201 220.566L330.301 219.706C330.301 219.706 325.967 215.559 315.408 205.031C307.949 197.598 306.83 193.374 306.714 191.82C309.826 191.885 322.147 192.912 330.699 204.697C343.136 221.837 332.23 239.259 331.767 239.99L333.927 241.377C334.056 241.184 346.261 221.773 332.783 203.195H332.796ZM327.638 220.707L312.566 237.436C309.762 234.778 301.454 226.138 300.644 216.008C299.911 206.867 301.081 199.716 304.489 193.733C305.235 196.429 307.473 200.73 313.608 206.854C321.491 214.711 325.889 219.012 327.638 220.707Z" fill="#F9D9AA"/>
<path d="M312.643 262.535L311.858 261.931C311.511 261.662 276.62 233.764 276.62 208.831C276.62 197.444 280.53 187.853 287.925 181.1C294.471 175.117 303.255 171.818 312.643 171.818C322.031 171.818 330.802 175.117 337.361 181.1C344.756 187.853 348.666 197.444 348.666 208.831C348.666 233.789 313.775 261.662 313.414 261.931L312.63 262.535H312.643ZM312.656 174.398C296.541 174.398 279.205 185.183 279.205 208.831C279.205 217.895 284.439 229.014 294.342 240.992C301.583 249.748 309.363 256.629 312.643 259.274C315.922 256.629 323.703 249.748 330.956 240.992C340.872 229.014 346.106 217.895 346.106 208.831C346.106 198.188 342.492 189.253 335.638 183C329.555 177.454 321.401 174.398 312.656 174.398Z" fill="#F9D9AA"/>
<path d="M343.328 276.016V273.448C359.314 273.448 366.593 261.778 366.593 250.942H369.165C369.165 257.477 366.863 263.575 362.683 268.146C357.964 273.294 351.276 276.016 343.328 276.016Z" fill="#F9D9AA"/>
<path d="M290.754 276.015C273.418 276.015 254.127 251.969 253.947 251.725L253.342 250.942L253.947 250.159C257.496 245.55 270.511 231.44 283.346 227.165L284.156 229.604C271.579 233.789 259.477 247.54 256.622 250.955C258.564 253.317 263.142 258.414 268.917 263.177C277.07 269.904 284.632 273.46 290.754 273.46V276.028V276.015Z" fill="#F9D9AA"/>
<path d="M343.328 273.448H290.754V276.016H343.328V273.448Z" fill="#F9D9AA"/>
<path d="M369.166 175.503H366.594C366.594 164.667 359.314 152.997 343.329 152.997V150.429C351.264 150.429 357.964 153.151 362.684 158.299C366.864 162.857 369.166 168.968 369.166 175.503Z" fill="#F9D9AA"/>
<path d="M343.329 150.443H300.953V153.01H343.329V150.443Z" fill="#F9D9AA"/>
<path d="M369.165 175.503H366.593V250.929H369.165V175.503Z" fill="#F9D9AA"/>
<path d="M242.617 182.012C234.154 182.012 224.714 180.587 214.413 176.928L215.275 174.514C253.034 187.93 278.896 170.316 285.931 164.59C290.895 160.559 295.114 156.322 298.65 151.777C298.946 150.403 300.67 138.695 279.9 117.986C257.111 95.262 247.864 86.4034 247.774 86.3135L246.873 85.4533L284.697 43.4842L285.648 44.2802C286.741 45.2046 312.54 67.2098 314.778 95.0565C317.376 127.551 309.235 148.94 287.552 166.58C282.189 170.945 266.229 182.012 242.617 182.012ZM250.436 85.3249C253.252 88.0467 262.846 97.3675 281.7 116.176C297.197 131.633 300.721 142.431 301.287 148.105C310.649 134.176 313.968 117.37 312.206 95.2748C310.289 71.4208 289.584 51.3286 284.915 47.079L250.436 85.3249Z" fill="#F9D9AA"/>
<path d="M251.825 195.377C238.578 195.377 225.975 189.766 215.249 179.046C214.195 177.993 213.179 176.851 212.201 175.618L214.22 174.026C215.133 175.169 216.085 176.247 217.075 177.236C241.022 201.141 269.47 194.529 285.764 178.276C293.558 170.496 298.599 160.507 299.949 150.147L302.496 150.481C301.068 161.393 295.77 171.921 287.578 180.086C278.279 189.368 266.332 194.773 253.921 195.325C253.214 195.351 252.519 195.377 251.825 195.377Z" fill="#F9D9AA"/>
<path d="M205.012 214.467L204.909 213.235C204.806 212.028 202.555 183.411 217.95 165.36C235.89 144.331 253.625 136.396 277.212 138.797C286.407 139.734 296.644 145.037 303.293 152.316L301.39 154.049C295.152 147.219 285.558 142.238 276.954 141.365C271.527 140.813 266.421 140.826 261.56 141.455C260.493 142.187 252.853 148.234 252.879 172.614C252.905 199.793 253.111 210.603 253.124 210.706L253.149 211.951L205.038 214.48L205.012 214.467ZM257.252 142.174C243.645 145.037 231.839 153.035 219.892 167.029C206.954 182.204 207.147 206.097 207.391 211.771L250.5 209.499C250.449 205.968 250.294 194.67 250.281 172.601C250.268 154.781 254.242 146.141 257.239 142.174H257.252Z" fill="#F9D9AA"/>
</g>
<defs>
<clipPath id="clip0_40_361">
<rect width="965" height="320" fill="white"/>
</clipPath>
</defs>
</svg>
