<svg width="145" height="60" viewBox="0 0 145 60" fill="none" xmlns="http://www.w3.org/2000/svg">
<g clip-path="url(#clip0_40_96)">
<path d="M123.68 0.574382L122.936 -5.72205e-06L122.191 0.574382C122.07 0.668544 115.587 5.92278 109.801 13.2015H109.782C109.782 13.2015 109.745 13.2486 109.689 13.3522C105.038 19.2279 100.871 26.403 100.871 33.2392C100.871 39.1055 102.88 45.0094 106.796 49.3597C106.852 49.4633 106.917 49.5763 107.01 49.661C107.122 49.774 107.243 49.8588 107.364 49.9623C111.038 53.7382 116.257 56.2053 122.945 56.2053C137.428 56.2053 145.009 44.6516 145.009 33.2392C145.009 17.8531 123.903 0.743874 123.689 0.574382H123.68ZM106.824 21.9397C106.229 26.2523 106.703 31.6478 110.489 36.9397C115.308 43.6629 121.782 45.1883 125.028 45.5179C124.331 46.2806 123.559 47.0151 122.703 47.7213C119.522 50.3484 112.871 51.855 108.685 47.8625C108.666 47.8437 108.648 47.8437 108.629 47.8249C105.438 44.4727 103.318 39.6516 103.318 33.2392C103.318 29.5857 104.731 25.6874 106.824 21.9303V21.9397ZM122.684 34.1243C118.359 29.7552 115.782 27.194 114.573 25.9981L123.019 16.4972C124.908 18.371 129.252 23.2674 129.707 28.9171C130.098 33.9171 129.559 37.9096 127.931 41.29C127.233 39.5763 125.745 37.2222 122.694 34.1337L122.684 34.1243ZM122.936 53.7476C120.787 53.7476 118.601 53.4087 116.498 52.7307C119.568 52.42 122.415 51.1394 124.238 49.6422C130.517 44.4633 132.879 38.2109 132.126 28.7194C131.475 20.4991 124.033 14.0678 123.717 13.7947L122.815 13.0226L111.178 26.1205L112.034 26.9491C112.034 26.9491 114.629 29.4727 120.963 35.8757C124.721 39.6798 125.717 42.0339 125.977 43.1262C123.587 43.0038 117.15 42.0339 112.471 35.4896C105.68 25.9981 110.778 16.3465 111.708 14.7458C115.838 9.51977 120.452 5.19773 122.926 3.145C126.573 6.24293 142.563 20.5838 142.563 33.2486C142.563 47.3352 132.386 53.7476 122.936 53.7476Z" fill="#FEDAA9"/>
<path d="M11.3113 19.661L11.1717 21.9962H0V0.442566H11.0136V2.85311H2.53945L2.57666 10.0659H9.93456V12.081H2.57666L2.60457 19.7552L11.3113 19.661Z" fill="black"/>
<path d="M29.4407 19.6516C29.3849 19.4539 29.3291 19.275 29.2733 19.1243C29.2082 18.9454 29.1616 18.8041 29.1244 18.7194L27.6361 15.1412C27.2454 14.3597 26.8361 13.7006 26.4082 13.2109C26.1664 12.9473 25.8873 12.7213 25.5711 12.5424L24.6967 12.0527L25.6362 11.6855C26.6687 11.29 27.5245 10.6874 28.1756 9.88701C29.0035 8.87006 29.4314 7.60829 29.4314 6.12995C29.4314 4.1243 28.7337 2.65537 27.3477 1.76084C25.9431 0.875714 23.7572 0.41432 20.8363 0.41432H16.762V4.50095L16.6411 21.9397H19.3294C19.3108 21.403 19.2364 19.1525 19.2364 18.7194V12.6742H21.3851C22.1944 12.6742 22.8642 12.8249 23.3665 13.1168C23.8688 13.4087 24.2409 13.7571 24.4827 14.1714C24.7339 14.5857 24.9943 15.1318 25.2455 15.8098L26.5664 19.275C27.1245 20.6686 27.8408 22.081 28.2035 22.4953C29.3198 23.7853 31.022 24.0961 32.129 24.1431C30.4546 22.8625 29.8314 20.8663 29.4407 19.6328V19.6516ZM21.5247 11.1676L19.2364 11.13V1.4501L19.6736 1.42185C19.9247 1.40302 20.334 1.3936 21.0224 1.3936C22.9572 1.3936 24.3804 1.81733 25.2548 2.63654C26.1292 3.46517 26.585 4.73635 26.585 6.40302C26.585 8.06969 26.0455 8.7194 25.1804 9.63278C24.2595 10.6026 23.0316 11.1205 21.534 11.1676H21.5247Z" fill="black"/>
<path d="M47.6731 2.70245H41.785L41.8222 21.9962H39.2455L39.2176 2.70245H33.3945V0.442566H47.6731V2.70245Z" fill="black"/>
<path d="M79.4766 0.442566H75.914L69.5142 22.1092H72.0536L74.0163 15.4896H81.4952L83.4858 22.1092H85.8857L79.4766 0.442566ZM74.4442 13.4746L77.5325 2.06215L81.058 13.4746H74.4535H74.4442Z" fill="black"/>
<path d="M62.3236 20.9981L62.2213 20.678L62.491 20.4802C64.7328 18.8606 65.97 16.2712 65.97 13.1638C65.97 7.23165 58.1563 0.979293 58.0726 0.91338L57.3749 0.357824L56.6494 0.91338C56.575 0.979293 48.752 7.23165 48.752 13.1638C48.752 19.0961 53.0867 22.1187 57.3656 22.1187C58.2121 22.1187 59.0772 21.9868 59.9237 21.7326L60.2493 21.6384L60.4353 21.9303C60.5097 22.0433 60.5376 22.0904 60.5748 22.1281C61.3004 23.1356 62.3236 23.6441 63.598 23.6441C63.7654 23.6441 63.9236 23.6441 64.0724 23.6252C63.0678 22.8908 62.6306 22.0245 62.3329 20.9981H62.3236ZM57.3563 19.7552C54.2308 19.7552 51.0868 17.7119 51.0868 13.1733C51.0868 9.44445 55.6541 4.96234 57.0587 3.68174L57.3656 3.38984L57.6819 3.68174C59.0772 4.97176 63.6445 9.46328 63.6445 13.1733C63.6445 16.3465 61.6818 19.7552 57.3656 19.7552H57.3563Z" fill="black"/>
<path d="M76.3697 38.7759V50.5085C76.3697 54.6892 74.9186 57.2222 71.9884 58.2486C71.9047 58.2674 71.821 58.2862 71.7466 58.2957C73.114 56.3465 73.8116 53.7288 73.8116 50.5085V38.7759H76.3697Z" fill="black"/>
<path d="M66.2677 45.4614C65.9422 45.6968 65.7282 45.8286 65.4864 45.9981L65.1143 46.2523C64.9561 48.6629 63.1981 51.2053 59.5889 51.2053H43.2359L44.1661 50.226C46.0451 48.2297 48.2776 45.2448 48.2776 42.2881C48.2776 37.2599 44.5754 34.6327 40.9011 34.6327C37.2268 34.6327 33.5246 37.2599 33.5246 42.2881C33.5246 45.2448 35.7571 48.2392 37.6361 50.226L38.5663 51.2053H21.5529C17.9716 51.2053 15.7949 48.8324 15.5531 44.6987V30.8286H13.0322V44.3691L13.0601 44.548C13.3764 50.838 15.7577 53.7665 20.5576 53.7665H60.2028C65.0492 53.7665 67.4398 50.7815 67.7095 44.3785C67.2351 44.7552 66.6956 45.1695 66.277 45.4614H66.2677ZM41.3104 49.4538L40.8918 49.8587L40.4732 49.4444C39.143 48.1544 36.0547 44.8399 36.0547 42.1845C36.0547 38.6629 38.4826 37.0998 40.8918 37.0998C43.301 37.0998 45.7289 38.6723 45.7289 42.1845C45.7289 44.8493 42.6406 48.1544 41.3104 49.4538Z" fill="black"/>
<path d="M85.2807 30.8286H82.7412V53.6252H85.2807V30.8286Z" fill="black"/>
<path d="M4.79961 47.9096V51.9868H8.82739V53.7665H2.4369C1.29275 53.7665 0.623003 53.1732 0.455566 51.9868H3.72058L3.10664 51.0829C2.4276 50.0753 2.38109 49.6987 2.38109 48.7759V45.8286H5.71121C8.24136 45.8286 9.15296 47.2975 9.15296 48.2674V48.6064C7.60883 47.9096 6.76234 47.9096 5.71121 47.9096H4.80892H4.79961Z" fill="black"/>
<path d="M83.3554 57.241H83.7182C84.2205 57.241 84.6112 57.241 85.2344 57.4859L85.4205 57.5612L85.4018 57.3635C85.3646 56.968 84.9833 56.3088 83.7926 56.3088H82.2578V57.6742C82.2578 58.0791 82.2764 58.2486 82.5275 58.6441L82.881 59.209H81.3555L81.3927 59.3597C81.5043 59.7834 81.7927 60 82.2578 60H85.4018V59.209H83.3554V57.2505V57.241Z" fill="black"/>
<path d="M38.9845 28.9642L40.51 30.5179L38.9845 32.0056L37.4775 30.5179L38.9845 28.9642Z" fill="black"/>
<path d="M44.2868 30.5179L42.7706 32.0056L41.2729 30.5179L42.7706 28.9736L44.2868 30.5179Z" fill="black"/>
<path d="M64.212 38.6535L65.7468 40.1977L64.212 41.6855L62.7051 40.2071L64.212 38.6535Z" fill="black"/>
<path d="M69.5236 40.2072L68.0074 41.6855L66.5098 40.1977L68.0074 38.6629L69.5236 40.2072Z" fill="black"/>
</g>
<defs>
<clipPath id="clip0_40_96">
<rect width="145" height="60" fill="white"/>
</clipPath>
</defs>
</svg>
